<svg xmlns="http://www.w3.org/2000/svg" width="640" height="160" viewBox="0 0 640 160" role="img" aria-label="Rezeptor">
  <rect width="640" height="160" fill="none"/>
  <!-- Icon (scaled from app mark) -->
  <g transform="translate(16,20) scale(0.234)">
    <rect width="512" height="512" rx="112" fill="#1C1C1A"/>
    <rect x="128" y="96" width="232" height="300" rx="22" fill="#EDE6D6"/>
    <rect x="128" y="96" width="232" height="36" rx="22" fill="#B87333"/>
    <rect x="128" y="114" width="232" height="18" fill="#B87333"/>
    <rect x="156" y="168" width="176" height="14" rx="7" fill="#1C1C1A" opacity="0.78"/>
    <rect x="156" y="206" width="176" height="14" rx="7" fill="#1C1C1A" opacity="0.55"/>
    <rect x="156" y="244" width="132" height="14" rx="7" fill="#1C1C1A" opacity="0.40"/>
    <rect x="156" y="282" width="156" height="14" rx="7" fill="#1C1C1A" opacity="0.28"/>
    <circle cx="352" cy="352" r="88" fill="#1C1C1A"/>
    <circle cx="352" cy="352" r="74" fill="#B87333"/>
    <path d="M312 354 L340 382 L400 318" fill="none" stroke="#1C1C1A" stroke-width="22" stroke-linecap="round" stroke-linejoin="round"/>
  </g>
  <text x="160" y="78" font-family="Georgia, 'Times New Roman', serif" font-size="52" font-weight="600" fill="#EDE6D6">Rezeptor</text>
  <text x="162" y="112" font-family="Arial, Helvetica, sans-serif" font-size="18" fill="#B87333">Tested Windows recipes for Linux · Proton-GE</text>
</svg>
